<?xml version="1.0" encoding="utf-8"?>
<!-- Generator: Adobe Illustrator 19.0.0, SVG Export Plug-In . SVG Version: 6.00 Build 0)  -->
<svg version="1.1" id="Capa_1" xmlns="http://www.w3.org/2000/svg" xmlns:xlink="http://www.w3.org/1999/xlink" x="0px" y="0px"
	 viewBox="0 0 366.1 249.4" style="enable-background:new 0 0 366.1 249.4;" xml:space="preserve">
<style type="text/css">
	.st0{fill:#f07434;}
	.st1{fill:#f7b835;}
	.st2{fill:#e63538;}
	.st3{fill:#d32d86;}
	.st4{fill:#8c3fbd;}
	.st5{fill:#FFFFFF;}
	.st6{fill:#08adda;}
	.st7{fill:#336e6e;}
</style>
<g id="XMLID_2_">
	<g id="XMLID_79_">
		<polygon id="XMLID_1_" class="st0" points="63.9,8.2 77.2,12.2 80.8,21.8 77.2,35.5 79.1,46 86.5,49.2 91.6,53.3 89.7,66.6 
			82.1,73.5 60.5,75.5 48.1,68.5 43.8,57.9 46.5,46.8 56.5,40.3 57.5,32.8 55.8,21.8 55.5,13.9 60.5,9.9 		"/>
		<polygon id="XMLID_64_" class="st1" points="115.3,18.2 100.8,42.3 93.8,61.9 96.8,70.8 112.5,75.5 123.3,68.9 140.1,75.5 
			150.8,67.9 150.8,53.3 141.8,33.9 135.1,21.8 		"/>
		<polygon id="XMLID_63_" class="st2" points="177.1,31.2 169.1,50.5 170.7,64.2 179.1,70.8 196.5,75.5 204.8,86.9 219.5,80.8 
			223.5,63.9 223.5,36.9 215.8,29.8 205.5,29.8 189.8,30.9 		"/>
		<polygon id="XMLID_66_" class="st3" points="233.1,29.8 248,32.8 262.8,29.8 271.4,38.2 272.8,58.3 271.1,70.8 254.8,75.5 
			237.5,75.5 225.8,70 223.5,50.9 226.6,33.7 		"/>
		<polygon id="XMLID_67_" class="st4" points="282.1,33.9 294.1,16.4 297.1,4 303.2,4 312.2,16.4 305.8,29.8 312.2,33.9 319.1,42.3 
			319.1,53.3 316.3,70.8 307.7,76.9 284.3,72.9 277.4,67 275.5,51.9 275.5,40.3 		"/>
		<path id="XMLID_4_" class="st5" d="M55.2,33.7c-1.4-1.6-2.5-3.3-3.4-5.3c-0.8-2-1.3-4.2-1.3-6.5c0-2.7,0.5-5.1,1.5-7.3
			c1-2.2,2.3-4.1,4.1-5.6c1.7-1.6,3.6-2.8,5.8-3.6C64.2,4.4,66.4,4,68.8,4c2.4,0,4.7,0.4,6.8,1.3c2.2,0.8,4.1,2,5.8,3.6
			c1.7,1.6,3.1,3.5,4.1,5.7c1,2.2,1.5,4.7,1.5,7.4c0,2.4-0.4,4.7-1.3,6.7c-0.9,2.1-2.1,3.9-3.6,5.4c0.5,0.9,0.8,2.1,0.8,3.4
			c0.1,0.6,0.2,1.3,0.4,2c0.2,0.8,0.3,1.5,0.4,2.3l0.2,1.1c2.4,0.3,4.6,1,6.8,2.3c2.1,1.2,3.9,2.8,5.4,4.7c0.7,1.2,1.3,2.6,1.9,4.3
			c0.6,1.6,0.9,3.3,0.9,4.8c0,2.9-0.7,5.4-2,7.6c-1.3,2.2-2.9,4-4.8,5.5c-2.6,1.6-5.3,3-8.1,4.3c-2.4,1.1-5.1,2.1-8,3
			c-2.9,0.9-5.8,1.4-8.7,1.4c-3.3,0-6.6-0.5-9.9-1.5c-3.3-1-6.3-2.5-8.9-4.5c-2.6-2-4.7-4.5-6.4-7.5c-1.6-3-2.4-6.5-2.4-10.4
			c0-3,0.4-5.6,1.2-7.9s1.9-4.3,3.3-6.1c1.4-1.8,2.9-3.2,4.7-4.5c1.8-1.2,3.6-2.3,5.5-3.1L55.2,33.7z M71.6,50.5
			c0.6-0.1,1.2-0.4,1.9-0.8c0.7-0.4,1.1-1,1.1-1.9c0-0.5-0.1-1.2-0.2-2.1c-0.1-0.9-0.2-1.9-0.4-2.9c-0.2-1-0.3-1.9-0.5-2.8
			c-0.2-0.9-0.3-1.5-0.4-1.8c-0.4-1.2-0.9-2.3-1.6-3.2c-0.7-0.9-1.7-1.3-3-1.3c-1.2,0-2.1,0.4-2.9,1.2c-0.7,0.8-1.2,1.8-1.5,3.1
			l-0.9,4.9c-2,0.5-3.8,1.1-5.5,1.9c-1.7,0.8-3.1,1.7-4.3,2.8c-1.2,1.1-2.1,2.5-2.8,4c-0.6,1.5-1,3.3-1,5.3c0,2.1,0.4,4,1.3,5.7
			c0.9,1.7,2.1,3.2,3.6,4.4c1.6,1.2,3.4,2.2,5.6,2.8c2.2,0.7,4.5,1,7.1,1c2.1,0,4-0.2,5.8-0.6c1.8-0.4,3.4-0.9,5-1.5
			c1.5-0.6,3-1.4,4.3-2.2c1.3-0.8,2.6-1.6,3.8-2.4c1.9-1.4,2.8-3.1,2.8-5.1c0-1.2-0.4-2.3-1.1-3.5c-1.4-1.8-3.1-2.7-5.3-2.7
			c-1.5,0-2.6,0.3-3.5,1c-1.8,1.4-3.6,2.4-5.4,3.2c-1.8,0.8-3.5,1.2-4.9,1.2c-1.5,0-2.6-0.3-3.4-0.9c-0.8-0.6-1.1-1.3-1.1-2.3
			c0-1.1,0.5-2,1.5-2.7C67,51.6,68.9,51,71.6,50.5z M77.2,21.9c0-2.4-0.8-4.3-2.4-5.8c-1.6-1.5-3.6-2.2-6-2.2
			c-1.1,0-2.2,0.2-3.2,0.6c-1,0.4-1.9,1-2.6,1.7c-0.8,0.7-1.4,1.5-1.8,2.5c-0.4,1-0.6,2.1-0.6,3.2c0,1.1,0.2,2.2,0.6,3.1
			c0.4,0.9,1,1.8,1.8,2.5c0.8,0.7,1.6,1.3,2.6,1.7c1,0.4,2.1,0.6,3.2,0.6c2.4,0,4.4-0.8,6-2.3C76.4,26,77.2,24.1,77.2,21.9z"/>
		<path id="XMLID_8_" class="st5" d="M126.2,73.5h-6.4c-1.6,1.9-3.4,3.4-5.6,4.6c-2.2,1.2-4.7,1.7-7.6,1.7c-2.6,0-5-0.5-7.1-1.5
			c-2.2-1-4-2.3-5.5-3.9c-1.5-1.6-2.7-3.5-3.6-5.6c-0.8-2.1-1.3-4.3-1.3-6.5c0-1.1,0.1-2.2,0.3-3.2c0.2-1.1,0.6-2.2,1.1-3.3
			l12.8-29.3c1-2.2,2.2-4.1,3.6-5.7c1.5-1.6,3.1-3,4.8-4.1c1.8-1.1,3.6-1.9,5.6-2.5c2-0.6,3.9-0.9,5.9-0.9c2.1,0,4.1,0.3,6.1,0.9
			c2,0.6,3.9,1.4,5.6,2.5c1.8,1.1,3.3,2.5,4.7,4.1c1.4,1.6,2.6,3.4,3.5,5.5L156,55.8c0.4,0.9,0.8,1.9,1.1,3c0.3,1.1,0.4,2.3,0.4,3.5
			c0,2.3-0.4,4.5-1.3,6.6c-0.9,2.1-2.1,4-3.7,5.6c-1.6,1.6-3.4,2.9-5.5,3.9c-2.1,1-4.5,1.5-7,1.5c-2.6,0-5.1-0.5-7.5-1.6
			C130,77.2,128,75.6,126.2,73.5z M112.5,30.2L99.6,59.7c-0.4,0.9-0.6,1.8-0.6,2.7c0,1,0.2,1.9,0.6,2.8c0.4,0.9,0.9,1.7,1.6,2.4
			c0.7,0.7,1.5,1.3,2.4,1.7c0.9,0.4,1.9,0.6,3.1,0.6c1.6,0,3.1-0.5,4.4-1.5c1.3-1,2.4-2.6,3.2-4.9h17.8l0.6,1.8
			c0.6,1.4,1.5,2.5,2.8,3.4c1.3,0.8,2.8,1.3,4.4,1.3c1.1,0,2.1-0.2,3-0.6c0.9-0.4,1.8-1,2.4-1.7c0.7-0.7,1.2-1.5,1.6-2.4
			c0.4-0.9,0.6-1.8,0.6-2.8c0-0.7-0.2-1.5-0.6-2.5l-12.9-29.6c-0.9-2.2-2.4-3.8-4.3-5.1c-2-1.2-4.1-1.8-6.5-1.8
			c-2.3,0-4.5,0.6-6.5,1.8C114.7,26.4,113.3,28.1,112.5,30.2z M118.1,53.3l5.1-13l5.2,13H118.1z"/>
		<path id="XMLID_12_" class="st5" d="M194.5,80.5c-0.6,0.1-1.2,0.1-1.7,0.2s-1.1,0.1-1.7,0.1c-3.9,0-7.4-0.8-10.6-2.4
			c-3.2-1.6-5.9-3.7-8.2-6.3c-2.3-2.6-4-5.7-5.3-9.2c-1.2-3.5-1.9-7.2-1.9-11.1c0-3.8,0.6-7.4,1.9-10.9c1.2-3.5,3-6.5,5.3-9.2
			c2.3-2.7,5-4.7,8.2-6.3c3.2-1.5,6.8-2.3,10.6-2.3c2.2,0,4.1,0.2,5.8,0.7c1.7,0.5,3.3,1,4.7,1.7c1.2-0.8,2.6-1.4,4.1-1.8
			c1.5-0.5,3.1-0.7,4.9-0.7c2.4,0,4.7,0.5,6.8,1.4c2.1,0.9,3.9,2.2,5.5,3.7c1.6,1.6,2.8,3.4,3.7,5.5c0.9,2.1,1.4,4.4,1.4,6.9v33
			c0,2.4-0.5,4.7-1.4,6.8c-0.9,2.1-2.2,3.9-3.8,5.4c-1.6,1.5-3.4,2.7-5.5,3.6c-2.1,0.9-4.3,1.3-6.6,1.3c-1.7,0-3.4-0.2-5.1-0.7
			s-3.2-1.2-4.6-2c-1.4-0.9-2.7-1.9-3.8-3.2C196.1,83.5,195.2,82.1,194.5,80.5z M218.1,40.5c0-2.2-0.7-4.1-2.2-5.5
			c-1.5-1.5-3.2-2.2-5.3-2.2c-1.8,0-3.4,0.6-4.8,1.8c-1.4,1.2-2.4,2.6-3.2,4.1c-0.7-0.7-1.4-1.4-2.2-2.1c-0.8-0.7-1.6-1.3-2.5-1.9
			c-0.9-0.5-1.9-1-3-1.3c-1.1-0.3-2.4-0.5-3.8-0.5c-2.3,0-4.4,0.5-6.3,1.4c-1.9,0.9-3.6,2.2-5.1,3.9s-2.6,3.6-3.4,5.9
			c-0.8,2.3-1.3,4.8-1.3,7.6c0,2.9,0.4,5.5,1.3,7.8c0.8,2.4,2,4.4,3.4,6c1.5,1.7,3.2,3,5.1,3.9c1.9,0.9,4,1.4,6.2,1.4
			c2.8,0,5.1-0.6,7-1.7c1.9-1.1,3.5-2.5,4.9-4.1v8.5c0,2,0.7,3.7,2.2,5.1c1.5,1.4,3.3,2.1,5.5,2.1c1,0,2-0.2,2.9-0.6
			c0.9-0.4,1.7-0.9,2.4-1.5c0.7-0.7,1.2-1.4,1.6-2.3c0.4-0.9,0.6-1.8,0.6-2.8V40.5z M196.5,59c-1.9,0-3.6-0.7-4.9-2
			c-1.3-1.3-2-3-2-5.1c0-2.1,0.7-3.8,2-5.2c1.3-1.3,3-2,4.9-2c1.9,0,3.5,0.7,4.8,2c1.3,1.4,2,3,2,5c0,1-0.2,2-0.5,2.8
			c-0.4,0.9-0.8,1.6-1.5,2.3s-1.3,1.2-2.1,1.5C198.4,58.9,197.5,59,196.5,59z"/>
		<path id="XMLID_16_" class="st5" d="M218.1,57.8V41.1c0-2.5,0.5-4.8,1.4-6.8c0.9-2.1,2.2-3.9,3.8-5.4c1.6-1.5,3.5-2.7,5.6-3.6
			c2.1-0.9,4.3-1.3,6.6-1.3c2.4,0,4.7,0.4,6.8,1.3c2.1,0.9,4,2.1,5.6,3.8c1.6-1.6,3.5-2.9,5.6-3.8c2.1-0.9,4.4-1.3,6.8-1.3
			c2.3,0,4.5,0.4,6.6,1.3c2.1,0.9,4,2.1,5.6,3.6c1.6,1.5,2.9,3.3,3.8,5.4c0.9,2.1,1.4,4.4,1.4,6.8v21.6c0,2.3-0.4,4.5-1.3,6.6
			c-0.8,2.2-2,4.1-3.5,5.7c-1.5,1.6-3.3,3-5.5,4c-2.1,1-4.5,1.5-7.2,1.5c-1.4,0-2.9-0.2-4.4-0.6c-1.5-0.4-3-1-4.4-1.8
			c-2.1,1-4.1,1.7-6,2c-2,0.3-3.6,0.4-4.9,0.4c-3.4,0-6.5-0.6-9.3-1.7c-2.8-1.1-5.2-2.7-7.1-4.7c-2-2-3.5-4.4-4.6-7.2
			C218.6,64.2,218.1,61.1,218.1,57.8z M240.8,70.8c0.9,0,1.8-0.1,2.9-0.2c1.1-0.2,2.1-0.5,3.2-0.9c1.1-0.5,2.1-1.1,3.2-1.9
			c1-0.8,1.9-1.9,2.7-3.3c0.2,1.1,0.6,2.1,1.2,2.9c0.6,0.8,1.2,1.4,1.9,1.9c0.7,0.5,1.5,0.9,2.3,1.1c0.8,0.2,1.6,0.4,2.4,0.4
			c2.2,0,4-0.8,5.4-2.3c1.4-1.5,2.1-3.4,2.1-5.6V41.1c0-1-0.2-1.9-0.6-2.8c-0.4-0.9-0.9-1.7-1.6-2.3c-0.7-0.6-1.5-1.2-2.4-1.5
			c-0.9-0.4-1.9-0.6-2.9-0.6c-1.1,0-2.1,0.2-3,0.6c-0.9,0.4-1.7,0.9-2.4,1.5c-0.7,0.6-1.2,1.4-1.6,2.3c-0.4,0.9-0.6,1.8-0.6,2.8
			v11.7c0,1.7-0.5,3.1-1.5,4c-1,0.9-2.1,1.4-3.4,1.4c-1.3,0-2.5-0.5-3.4-1.4c-0.9-0.9-1.4-2.2-1.4-4V41.1c0-2-0.7-3.7-2.2-5.1
			c-1.5-1.4-3.2-2.1-5.3-2.1c-1.1,0-2.1,0.2-3,0.6c-0.9,0.4-1.7,0.9-2.4,1.5c-0.7,0.6-1.2,1.4-1.6,2.3c-0.4,0.9-0.6,1.8-0.6,2.8
			v16.6c0,4,1.1,7.2,3.4,9.6C233.7,69.6,236.8,70.8,240.8,70.8z"/>
		<path id="XMLID_19_" class="st5" d="M302.7,0c2.2,0,4.2,0.4,6,1.3c1.8,0.9,3.4,2,4.7,3.4c1.3,1.4,2.3,3,3,4.7
			c0.7,1.8,1.1,3.6,1.1,5.4c0,1.5-0.3,3.1-0.8,4.8c-0.6,1.7-1.5,3.2-2.9,4.5l-2.3,2.2c1.6,0.8,3,1.7,4.4,2.8c2.4,1.8,4.5,4,6.1,6.6
			c1.6,2.6,2.9,5.4,3.7,8.5c0.3,1.5,0.5,2.8,0.5,4c0,1.9-0.3,3.8-0.9,5.4c-0.6,1.7-1.4,3.2-2.5,4.6c0.3,0.8,0.5,1.5,0.6,2.3
			s0.2,1.6,0.2,2.5c0,2.3-0.5,4.5-1.5,6.6c-1,2.1-2.5,3.9-4.5,5.3c-2.6,1.9-5.5,3.3-8.6,4.3c-3.2,1-6.7,1.5-10.5,1.5
			c-4.2,0-8.2-0.7-11.9-2c-3.7-1.3-7-3.2-9.7-5.7c-2.8-2.5-4.9-5.5-6.6-9c-1.6-3.5-2.4-7.5-2.4-11.9c0-4.1,0.7-7.9,2.2-11.5
			c1.5-3.5,3.5-6.6,6.1-9.2c2.5-2.5,5.5-4.5,8.8-5.9c-0.6-1.3-1-2.7-1-4.3c0-1.2,0.2-2.4,0.5-3.4c0.3-1.1,0.7-1.9,1.1-2.6l4.4-8.1
			c0.8-1.3,1.6-2.5,2.7-3.4c1-0.9,2.1-1.6,3.2-2.2c1.1-0.6,2.2-1,3.4-1.2C300.6,0.1,301.7,0,302.7,0z M304.6,59.6
			c-0.9,0.4-1.7,0.7-2.5,0.9c-0.7,0.2-1.5,0.3-2.3,0.3c-1.8,0-3.4-0.5-4.8-1.5c-1.4-1-2.4-2.4-3.1-4.3h17.2c2,0,3.7-0.7,5.1-2
			c1.4-1.3,2.1-3,2.1-4.9c0-0.5-0.1-1-0.2-1.6c-0.5-1.9-1.2-3.8-2.3-5.4c-1-1.7-2.3-3.1-3.9-4.3c-1.6-1.2-3.4-2.1-5.5-2.8
			c-2.1-0.7-4.5-1-7.1-1c-2.8,0-5.4,0.5-7.7,1.5c-2.3,1-4.4,2.3-6.1,4c-1.7,1.7-3.1,3.7-4,6c-1,2.3-1.5,4.9-1.5,7.6
			c0,2.8,0.5,5.4,1.5,7.7c1,2.3,2.4,4.3,4.2,5.9c1.8,1.6,4,2.9,6.6,3.8c2.6,0.9,5.4,1.3,8.5,1.3c2.9,0,5.4-0.4,7.5-1.1
			c2.2-0.7,4.1-1.7,5.7-2.9c0.7-0.5,1.2-1.1,1.5-1.7c0.3-0.7,0.5-1.4,0.5-2.1c0-0.5-0.1-1-0.4-1.6c-0.2-0.6-0.5-1.1-0.8-1.5
			c-0.5-0.6-1.1-1.1-1.8-1.4c-0.7-0.3-1.4-0.5-2.2-0.5c-0.4,0-0.8,0-1.2,0.1c-0.4,0.1-0.8,0.2-1.2,0.4L304.6,59.6z M291.9,49.2
			c0.3-2,0.9-3.6,1.9-4.7c1-1.1,2.2-1.7,3.6-1.7c1.6,0,2.9,0.6,3.9,1.7c1.1,1.1,1.7,2.7,1.9,4.7H291.9z M294.6,19.8
			c-0.3,0.5-0.4,1-0.4,1.5c0,0.4,0.1,0.8,0.4,1c0.3,0.2,0.6,0.4,1.1,0.5c0.4,0.1,0.9,0.2,1.3,0.2c0.5,0,0.9,0,1.3,0
			c0.7,0,1.3-0.1,1.9-0.2c0.5-0.1,1.2-0.5,1.9-1.2l4.8-4.5c0.5-0.6,0.8-1.3,0.8-2.3c0-0.6-0.1-1.2-0.4-1.7c-0.2-0.6-0.6-1.1-1.1-1.6
			c-0.5-0.5-1-0.9-1.6-1.2c-0.6-0.3-1.2-0.4-1.9-0.4c-0.8,0-1.5,0.1-2.2,0.4c-0.6,0.3-1.2,0.8-1.6,1.6L294.6,19.8z"/>
	</g>
	<g id="XMLID_78_">
		<polygon id="XMLID_68_" class="st6" points="16.8,90.5 32.1,90.5 37.8,104.7 39.9,131.1 37.8,149.5 28.3,158.5 11.5,156.9 
			4.8,149.5 12.5,139.5 12.5,111.5 15.1,95.7 		"/>
		<polygon id="XMLID_69_" class="st7" points="51.5,102.2 61.8,108.2 74.5,105.2 85.8,108.2 89.1,126.6 88.2,145 72.8,149.2 
			58.5,147.9 42.9,147 39.9,133.1 39.9,115.9 		"/>
		<polygon id="XMLID_65_" class="st3" points="99,102.2 116.8,102.2 134.1,102.2 140.3,113.4 140.3,135.5 136.9,154.1 115.3,160.2 
			93.8,154.1 91.6,130.4 91.6,117.8 		"/>
		<polygon id="XMLID_71_" class="st0" points="155.1,102.2 180.5,107.2 189.7,117.8 190.4,139.5 185.6,149.2 161.3,149.2 
			145.8,144.2 143.8,126.6 147.6,110.9 		"/>
		<polygon id="XMLID_72_" class="st1" points="194.1,104.7 215.8,102.2 230.1,102.2 248,103.4 264.2,111.5 269.8,134.9 259.9,147.2 
			245.5,149.2 227.7,145.2 199.5,146.9 192.5,139.9 		"/>
		<polygon id="XMLID_70_" class="st2" points="282.1,102.2 297.8,102.2 309.8,110.9 314.8,125.4 312.2,142.9 297.1,147.9 
			275.5,145.2 268.1,139.5 268.1,117.8 274.5,107.2 		"/>
		<polygon id="XMLID_74_" class="st4" points="324.8,107.2 339.1,100.2 348.8,104.7 356.2,108.2 360.1,122.5 360.1,140.2 
			351.1,147.9 331.1,147.9 319.1,142.5 319.1,128.3 319.1,112.5 		"/>
		<path id="XMLID_24_" class="st5" d="M8.6,137.8v-22.4c0-1.4,0.2-2.7,0.5-4c0.3-1.3,0.8-2.5,1.4-3.6c-1.4-2.2-2.1-4.7-2.1-7.6
			c0-2.2,0.4-4.1,1.3-5.9c0.8-1.8,1.9-3.3,3.3-4.5c1.4-1.2,2.9-2.2,4.7-2.9c1.7-0.7,3.5-1,5.3-1h6.3c1.9,0,3.7,0.3,5.5,1
			c1.8,0.7,3.3,1.6,4.7,2.9c1.3,1.3,2.4,2.8,3.2,4.5c0.8,1.8,1.2,3.7,1.2,5.8c0,2.9-0.7,5.5-2.1,7.6c1.2,2.3,1.9,4.9,1.9,7.6v26.2
			c0,3-0.6,5.8-1.7,8.6c-1.1,2.8-2.6,5.3-4.6,7.4c-2,2.2-4.3,3.9-7.1,5.2c-2.8,1.3-5.9,2-9.3,2h-5.6c-1.9,0-3.8-0.3-5.7-0.9
			c-1.8-0.6-3.5-1.5-4.9-2.7c-1.4-1.2-2.6-2.7-3.4-4.4c-0.9-1.8-1.3-3.8-1.3-6.1c0-3.2,0.8-6,2.3-8.1C3.9,140.4,6,138.8,8.6,137.8z
			 M33.7,115.3c0-1-0.2-1.9-0.6-2.8c-0.4-0.9-0.9-1.6-1.6-2.3c-0.7-0.6-1.5-1.2-2.4-1.5c-0.9-0.4-1.9-0.6-3-0.6
			c-2.1,0-3.9,0.7-5.3,2.1c-1.5,1.4-2.2,3.1-2.2,5v27.9c0,0.4,0,0.8,0,1.1c0,0.3,0,0.5-0.1,0.8c-0.1,0.4-0.3,0.8-0.6,1.1
			c-0.3,0.3-0.7,0.4-1.1,0.4h-2.1c-1.7,0-3,0.4-3.7,1.1c-0.7,0.8-1.1,1.8-1.1,3c0,1.2,0.4,2.3,1.3,3c0.9,0.8,2.2,1.2,4.1,1.2h5.5
			c1.8,0,3.6-0.4,5.1-1.1c1.6-0.8,3-1.7,4.1-3c1.1-1.2,2-2.6,2.7-4.3s1-3.3,1-5V115.3z M22.9,95.7c-1.2,0-2.3,0.4-3.3,1.3
			c-0.9,0.8-1.4,1.9-1.4,3.1c0,1.3,0.5,2.4,1.4,3.2c0.9,0.9,2,1.3,3.3,1.3h6.3c1.3,0,2.5-0.4,3.4-1.3c0.9-0.9,1.3-1.9,1.3-3.2
			c0-1.2-0.4-2.3-1.3-3.1c-0.9-0.8-2-1.3-3.4-1.3H22.9z"/>
		<path id="XMLID_28_" class="st5" d="M33.9,132v-16.6c0-2.5,0.5-4.8,1.4-6.8c0.9-2.1,2.2-3.9,3.8-5.4c1.6-1.5,3.5-2.7,5.6-3.6
			c2.1-0.9,4.3-1.3,6.6-1.3c2.4,0,4.7,0.4,6.8,1.3c2.1,0.9,4,2.1,5.6,3.8c1.6-1.6,3.5-2.9,5.6-3.8c2.1-0.9,4.4-1.3,6.8-1.3
			c2.3,0,4.5,0.4,6.6,1.3c2.1,0.9,4,2.1,5.6,3.6c1.6,1.5,2.9,3.3,3.8,5.4c0.9,2.1,1.4,4.4,1.4,6.8V137c0,2.3-0.4,4.5-1.3,6.6
			c-0.8,2.2-2,4.1-3.5,5.7c-1.5,1.6-3.3,3-5.5,4c-2.1,1-4.5,1.5-7.2,1.5c-1.4,0-2.9-0.2-4.4-0.6c-1.5-0.4-3-1-4.4-1.8
			c-2.1,1-4.1,1.7-6,2c-2,0.3-3.6,0.4-4.9,0.4c-3.4,0-6.5-0.6-9.3-1.7c-2.8-1.1-5.2-2.7-7.1-4.7c-2-2-3.5-4.4-4.6-7.2
			C34.5,138.4,33.9,135.3,33.9,132z M56.6,145c0.9,0,1.8-0.1,2.9-0.2c1.1-0.2,2.1-0.5,3.2-0.9c1.1-0.5,2.1-1.1,3.2-1.9
			c1-0.8,1.9-1.9,2.7-3.3c0.2,1.1,0.6,2.1,1.2,2.9c0.6,0.8,1.2,1.4,1.9,1.9c0.7,0.5,1.5,0.9,2.3,1.1c0.8,0.2,1.6,0.4,2.4,0.4
			c2.2,0,4-0.8,5.4-2.3c1.4-1.5,2.1-3.4,2.1-5.6v-21.6c0-1-0.2-1.9-0.6-2.8c-0.4-0.9-0.9-1.7-1.6-2.3c-0.7-0.6-1.5-1.2-2.4-1.5
			c-0.9-0.4-1.9-0.6-2.9-0.6c-1.1,0-2.1,0.2-3,0.6c-0.9,0.4-1.7,0.9-2.4,1.5c-0.7,0.6-1.2,1.4-1.6,2.3c-0.4,0.9-0.6,1.8-0.6,2.8
			v11.7c0,1.7-0.5,3.1-1.5,4c-1,0.9-2.1,1.4-3.4,1.4c-1.4,0-2.5-0.5-3.4-1.4c-0.9-0.9-1.4-2.2-1.4-4v-11.7c0-2-0.7-3.7-2.2-5.1
			c-1.5-1.4-3.2-2.1-5.3-2.1c-1.1,0-2.1,0.2-3,0.6c-0.9,0.4-1.7,0.9-2.4,1.5c-0.7,0.6-1.2,1.4-1.6,2.3c-0.4,0.9-0.6,1.8-0.6,2.8V132
			c0,4,1.1,7.2,3.4,9.6C49.6,143.8,52.7,145,56.6,145z"/>
		<path id="XMLID_31_" class="st5" d="M91.6,143.2c-2.4-2.3-4.3-5.1-5.7-8.4c-1.4-3.3-2-6.8-2-10.7c0-3.8,0.7-7.4,2-10.7
			c1.3-3.3,3.1-6.1,5.4-8.5c2.3-2.4,5-4.3,8.1-5.6c3.1-1.3,6.5-2,10.1-2c2.2,0,4.1,0.2,5.9,0.6c1.8,0.4,3.4,1,4.9,1.7
			c1.2-0.6,2.5-1.2,4-1.6c1.5-0.4,3.1-0.6,4.8-0.6c2.5,0,4.8,0.5,6.9,1.4c2.1,0.9,4,2.2,5.5,3.8c1.6,1.6,2.8,3.5,3.7,5.6
			c0.9,2.1,1.4,4.4,1.4,6.8v20.5c0,4-0.6,7.9-1.7,11.7c-1.1,3.8-3.2,7.2-6.3,10.1c-2.9,2.8-6.3,4.8-10.3,6.1
			c-3.9,1.2-8.4,1.9-13.5,1.9c-2.9,0-5.5-0.1-8-0.4s-4.9-0.7-7.2-1.3c-1.8-0.5-3.3-1.2-4.5-2.3c-1.2-1-2.3-2.2-3-3.4
			s-1.3-2.5-1.7-3.9c-0.4-1.3-0.5-2.6-0.5-3.8C90,147.5,90.5,145.3,91.6,143.2z M122.1,137.1c0,2.7-0.8,4.8-2.4,6.3
			c-1.6,1.5-4,2.2-7.1,2.2c-1.5,0-2.8-0.1-4-0.3s-2.3-0.3-3.4-0.3c-1.5,0-2.8,0.5-3.8,1.5c-1,1-1.5,2.2-1.5,3.6
			c0,0.9,0.2,1.7,0.6,2.4c0.4,0.7,1.1,1.2,1.9,1.4c1.7,0.5,3.6,0.8,5.6,1c2,0.2,4.3,0.3,7,0.3c4.3,0,7.8-0.5,10.4-1.4
			c2.6-0.9,4.8-2.2,6.6-3.8c1.7-1.7,3-3.7,3.7-6c0.8-2.3,1.1-5.2,1.1-8.5v-20.5c0-1-0.2-2-0.6-2.9c-0.4-0.9-0.9-1.7-1.6-2.4
			c-0.7-0.7-1.5-1.3-2.4-1.7c-0.9-0.4-2-0.6-3-0.6c-1.4,0-2.6,0.3-3.6,0.8c-1,0.5-1.8,1.1-2.4,1.7c-0.8,0.8-1.4,1.6-1.9,2.5
			c-1.4-1.4-3-2.6-4.9-3.6c-1.8-1-4.1-1.5-6.9-1.5c-2.2,0-4.2,0.4-6.1,1.2c-1.9,0.8-3.6,2-5,3.4c-1.4,1.5-2.6,3.3-3.4,5.3
			c-0.8,2.1-1.3,4.4-1.3,6.9c0,2.5,0.4,4.7,1.3,6.8c0.8,2,2,3.8,3.4,5.2s3.2,2.6,5.3,3.4c2.1,0.8,4.3,1.2,6.7,1.2
			c2.6,0,4.9-0.6,6.8-1.8c1.9-1.2,3.5-2.5,4.8-3.8V137.1z M122.1,124.1c0,1.7-0.6,3.2-1.9,4.5c-1.2,1.3-2.9,1.9-4.9,1.9
			c-2.2,0-3.8-0.6-5.1-1.8c-1.2-1.2-1.8-2.7-1.8-4.5c0-1.7,0.6-3.2,1.8-4.4c1.2-1.2,2.9-1.8,5.1-1.8c2.1,0,3.7,0.6,4.9,1.8
			C121.5,120.8,122.1,122.3,122.1,124.1z"/>
		<path id="XMLID_35_" class="st5" d="M142,120.3c-1.1-1.9-1.7-4.2-1.7-6.9c0-1.6,0.3-3.2,0.8-4.7c0.5-1.5,1.3-2.9,2.3-4.1
			c1-1.2,2.1-2.3,3.4-3.2c1.3-0.9,2.8-1.6,4.3-2c2.1-0.5,4.4-1,6.8-1.3c2.4-0.4,5-0.5,7.8-0.5c4.5,0,8.7,0.5,12.6,1.6
			c3.9,1.1,7.3,3.1,10.2,6c2.7,2.6,4.5,5.4,5.5,8.5c0.9,3.1,1.4,6.4,1.4,9.8v13.9c0,2.5-0.5,4.8-1.4,7c-0.9,2.2-2.2,4-3.8,5.7
			s-3.5,2.9-5.7,3.8c-2.2,0.9-4.5,1.4-6.9,1.4c-1.6,0-3.2-0.2-4.6-0.6s-2.8-1-4.1-1.7c-1.5,0.6-3,1.1-4.7,1.4
			c-1.6,0.4-3.4,0.5-5.3,0.5c-2.8,0-5.5-0.4-8.2-1.3c-2.6-0.9-5-2.2-7.1-3.9c-2.1-1.8-3.7-3.9-5-6.5c-1.2-2.6-1.9-5.6-1.9-9.2
			c0-2.9,0.5-5.5,1.4-7.8C139.2,123.9,140.4,122,142,120.3z M185.6,123.5c0-2.6-0.3-4.9-0.9-6.6c-0.6-1.8-1.6-3.4-3-4.8
			c-1.6-1.6-3.7-2.7-6.2-3.5c-2.5-0.8-5.8-1.1-9.7-1.1c-2.3,0-4.5,0.1-6.5,0.4c-2,0.3-3.9,0.6-5.6,1.1c-1,0.3-1.9,0.8-2.5,1.7
			c-0.6,0.9-1,1.8-1,2.8c0,1.4,0.5,2.5,1.6,3.4c1.1,0.9,2.3,1.3,3.7,1.3c1.4,0,2.7-0.1,3.9-0.3c1.2-0.2,2.4-0.3,3.6-0.3
			c2.7,0,4.6,0.5,5.8,1.4c1.2,0.9,1.8,2.4,1.8,4.3v1.3c-0.5-0.2-1.1-0.4-1.9-0.6c-0.8-0.2-1.6-0.4-2.5-0.5c-0.9-0.2-1.7-0.3-2.6-0.4
			s-1.7-0.1-2.6-0.1c-4.4,0-7.8,1-10.4,2.9c-2.6,1.9-3.8,4.7-3.8,8.2c0,3.6,1.1,6.3,3.4,8.2c2.3,1.9,5.2,2.8,8.8,2.8
			c2.3,0,4.4-0.4,6.2-1.3c1.8-0.9,3.5-2,4.9-3.5c0.7,1.5,1.7,2.7,3.1,3.6c1.3,0.9,2.8,1.4,4.5,1.4c2.2,0,4.1-0.7,5.6-2.2
			c1.5-1.5,2.3-3.4,2.3-5.6V123.5z M165.3,137.1c-1.1,0-2.1-0.4-2.9-1.1c-0.8-0.7-1.2-1.8-1.2-3.1c0-1.2,0.4-2.3,1.3-3.2
			c0.9-0.9,2.2-1.3,3.9-1.3c0.7,0,1.4,0.1,2.1,0.2c0.7,0.1,1.4,0.3,2,0.5v1.9c0,1.9-0.5,3.4-1.5,4.5
			C168.1,136.5,166.8,137.1,165.3,137.1z"/>
		<path id="XMLID_39_" class="st5" d="M203.1,97.4c1.6,0,3.1,0.2,4.7,0.6c1.6,0.4,3.1,1,4.5,1.8c1.7-0.9,3.5-1.6,5.2-2
			c1.8-0.4,3.5-0.6,5.2-0.6c4.5,0,8.6,1.1,12.1,3.2c1.7-0.9,3.5-1.7,5.5-2.3c2-0.6,4.3-0.9,6.8-0.9c3.4,0,6.5,0.6,9.3,1.7
			c2.8,1.1,5.2,2.7,7.2,4.7c2,2,3.6,4.4,4.7,7.3c1.1,2.8,1.7,5.9,1.7,9.2V137c0,2.5-0.5,4.8-1.4,6.9c-0.9,2.1-2.2,3.9-3.8,5.4
			c-1.6,1.5-3.5,2.7-5.6,3.5c-2.1,0.8-4.3,1.3-6.6,1.3c-2.3,0-4.6-0.4-6.7-1.3c-2.1-0.9-4-2.1-5.6-3.6c-1.6,1.6-3.5,2.8-5.6,3.6
			c-2.1,0.9-4.3,1.3-6.7,1.3c-2.4,0-4.6-0.4-6.7-1.3c-2.1-0.9-4-2.1-5.6-3.6c-1.6,1.6-3.5,2.8-5.6,3.6c-2.1,0.9-4.3,1.3-6.7,1.3
			c-2.3,0-4.5-0.4-6.6-1.3c-2.1-0.9-4-2.1-5.6-3.6c-1.6-1.5-2.9-3.3-3.9-5.4c-1-2.1-1.5-4.4-1.5-6.8v-22.1c0-2.9,0.5-5.4,1.6-7.6
			c1.1-2.2,2.4-4,4.1-5.5c1.7-1.5,3.6-2.6,5.6-3.3C199,97.8,201,97.4,203.1,97.4z M195.5,114.9V137c0,1,0.2,1.9,0.6,2.8
			c0.4,0.9,0.9,1.7,1.6,2.3c0.7,0.6,1.5,1.2,2.4,1.5c0.9,0.4,1.9,0.6,3,0.6c2.1,0,3.9-0.7,5.3-2.1c1.5-1.4,2.2-3.1,2.2-5.1v-11.9
			c0-1.7,0.5-3,1.5-4c1-0.9,2.1-1.4,3.4-1.4c1.2,0,2.3,0.5,3.2,1.4c0.9,0.9,1.4,2.2,1.4,4V137c0,2,0.7,3.7,2.2,5.1
			c1.5,1.4,3.2,2.1,5.3,2.1c1,0,2-0.2,3-0.6c0.9-0.4,1.8-0.9,2.4-1.5c0.7-0.6,1.2-1.4,1.6-2.3c0.4-0.9,0.6-1.8,0.6-2.8v-11.9
			c0-1.7,0.5-3,1.5-4c1-0.9,2.1-1.4,3.4-1.4s2.3,0.5,3.2,1.4c0.9,0.9,1.4,2.2,1.4,4V137c0,1,0.2,1.9,0.6,2.8
			c0.4,0.9,0.9,1.7,1.6,2.3c0.7,0.6,1.5,1.2,2.4,1.5c0.9,0.4,1.9,0.6,2.9,0.6c1,0,2-0.2,3-0.6c0.9-0.4,1.8-0.9,2.4-1.5
			c0.7-0.6,1.2-1.4,1.6-2.3c0.4-0.9,0.6-1.8,0.6-2.8v-16.8c0-4-1.1-7.2-3.4-9.6c-2.3-2.3-5.4-3.5-9.4-3.5c-2.9,0-5.4,0.6-7.4,1.8
			s-3.9,2.7-5.6,4.6c-2.4-4.3-6.2-6.4-11.3-6.4c-1.7,0-3.5,0.4-5.5,1.3c-2,0.8-4.1,2.5-6.4,5c-0.6-2.2-1.7-3.7-3.1-4.6
			c-1.4-0.9-3-1.4-4.7-1.4c-1,0-1.9,0.2-2.8,0.5s-1.7,0.8-2.4,1.4c-0.7,0.6-1.3,1.4-1.7,2.3C195.7,112.5,195.5,113.6,195.5,114.9z"
			/>
		<path id="XMLID_42_" class="st5" d="M259.9,126.3c0-4.2,0.8-8,2.5-11.5c1.6-3.5,3.9-6.6,6.7-9.2c2.8-2.6,6.1-4.6,9.9-6.1
			s7.8-2.2,12.1-2.2s8.3,0.7,12.1,2.1c3.8,1.4,7.1,3.4,9.9,6c2.8,2.6,5,5.6,6.6,9.1c1.6,3.5,2.4,7.3,2.4,11.4
			c0,4.2-0.8,8.1-2.5,11.6c-1.6,3.5-3.9,6.6-6.7,9.2c-2.8,2.6-6.1,4.6-9.9,6c-3.8,1.4-7.8,2.1-12.1,2.1c-4.2,0-8.2-0.7-12-2.1
			c-3.8-1.4-7.1-3.4-9.9-6c-2.8-2.5-5-5.5-6.7-9C260.7,134.3,259.9,130.4,259.9,126.3z M290.9,145c3.1,0,5.9-0.5,8.5-1.5
			c2.6-1,4.9-2.4,6.7-4.1c1.9-1.7,3.3-3.8,4.4-6.1c1.1-2.3,1.6-4.8,1.6-7.4c0-2.5-0.5-5-1.5-7.2c-1-2.3-2.5-4.3-4.3-6s-4.1-3-6.7-4
			c-2.6-1-5.4-1.5-8.5-1.5s-5.9,0.5-8.5,1.5c-2.6,1-4.9,2.4-6.8,4.1c-1.9,1.8-3.4,3.8-4.4,6.1c-1.1,2.3-1.6,4.8-1.6,7.4
			s0.5,5,1.6,7.3c1.1,2.3,2.5,4.3,4.4,6c1.9,1.7,4.1,3,6.7,4C285,144.5,287.9,145,290.9,145z M291.1,133.1c-1.9,0-3.6-0.7-4.9-2
			c-1.3-1.3-1.9-3-1.9-5.1c0-1.9,0.6-3.5,1.9-4.8c1.3-1.3,2.8-2,4.7-2s3.5,0.7,4.8,2c1.3,1.4,2,3.1,2,5.1c0,1.9-0.6,3.5-1.9,4.8
			C294.6,132.4,293,133.1,291.1,133.1z"/>
		<path id="XMLID_46_" class="st5" d="M320.9,151.1c-2.7-1.1-4.8-2.9-6.4-5.3c-1.6-2.4-2.3-5.1-2.3-8c0-1.6,0.2-3.1,0.7-4.6
			c0.5-1.4,1.2-2.7,2-3.8c-1.6-2.8-2.4-6.1-2.4-9.8c0-4,0.8-7.4,2.4-10.2c1.6-2.8,3.6-5.1,6.2-6.9c2.5-1.8,5.3-3.1,8.5-3.9
			c3.1-0.8,6.2-1.3,9.2-1.3c2.6,0,5.5,0.3,8.5,0.8c3,0.5,5.8,1.4,8.3,2.7c2.5,1.3,4.6,3,6.3,5.1c1.7,2.1,2.5,4.8,2.5,8
			c0,1.4-0.2,2.7-0.5,3.9c-0.4,1.2-0.8,2.3-1.4,3.4c2.4,3.2,3.6,7,3.6,11.5c0,4-0.8,7.4-2.3,10.2c-1.5,2.8-3.5,5.1-6,6.9
			c-2.5,1.8-5.3,3.1-8.4,3.9c-3.1,0.8-6.3,1.3-9.5,1.3c-3.4,0-6.7-0.3-9.8-0.9C327,153.4,323.9,152.4,320.9,151.1z M339.9,145
			c5.1,0,9.1-1.1,12-3.2c2.9-2.1,4.3-5.2,4.3-9.2c0-1.8-0.4-3.3-1.1-4.6c-0.7-1.3-1.7-2.4-3-3.3c-1.3-0.9-2.9-1.7-4.8-2.3
			c-1.9-0.6-4-1.2-6.3-1.8c-1.9-0.4-3.3-0.9-4-1.3c-0.7-0.4-1.1-0.9-1.1-1.4c0-1.1,0.9-1.7,2.7-1.7c1.3,0,2.4,0.1,3.4,0.4
			c1,0.2,1.9,0.5,2.8,0.8c0.9,0.3,1.7,0.5,2.4,0.8c0.8,0.2,1.5,0.4,2.3,0.4c1.3,0,2.4-0.4,3.4-1.3c1-0.9,1.5-2,1.5-3.4
			c0-0.9-0.3-1.8-1-2.6c-0.7-0.8-1.4-1.4-2.2-1.8c-1.9-0.6-3.9-1.2-6.1-1.6c-2.2-0.4-4.4-0.6-6.5-0.6c-2.4,0-4.7,0.3-6.7,0.8
			c-2,0.5-3.7,1.3-5.2,2.4c-1.4,1.1-2.5,2.3-3.3,3.9c-0.8,1.5-1.2,3.3-1.2,5.3c0,1.8,0.4,3.4,1.1,4.7c0.7,1.3,1.7,2.4,3,3.3
			c1.3,0.9,2.9,1.7,4.8,2.3c1.9,0.6,4,1.2,6.4,1.8c2.1,0.5,3.5,1,4.1,1.3c0.6,0.3,0.9,0.8,0.9,1.4c0,1.1-0.9,1.6-2.8,1.6
			s-3.7-0.2-5.7-0.7c-1.9-0.5-3.8-1-5.7-1.6c-0.8-0.3-1.4-0.4-1.8-0.4c-1.3,0-2.4,0.5-3.4,1.4c-1,0.9-1.5,2-1.5,3.2
			c0,0.9,0.3,1.8,0.8,2.6c0.5,0.8,1.2,1.3,2,1.7C329.3,144,334.3,145,339.9,145z"/>
	</g>
	<g id="XMLID_3_">
		<polygon id="XMLID_75_" class="st0" points="96.4,169.7 107.7,179.5 117.9,186.2 126.7,188.7 133.3,196.3 134.7,216.6 
			128.7,230.9 111,226.5 100,230.9 88,226.5 82.7,205.9 84.7,183.2 91.7,173.9 		"/>
		<polygon id="XMLID_76_" class="st1" points="153,184.2 171.4,186.9 183.1,194.9 187,207.4 183.7,225.8 171.4,228.5 155.3,230.9 
			140.8,222.5 134.7,213.2 139.5,200.3 147.7,188.7 		"/>
		<polygon id="XMLID_77_" class="st2" points="195,184.2 209.4,188.7 222.7,186.5 233.7,188.7 235.4,200.3 230.3,220.5 222.7,230.9 
			215.2,240.5 198,240.5 190,235.6 188.1,225.7 187,207.4 192.3,192.2 		"/>
		<polygon id="XMLID_73_" class="st4" points="248.4,179.5 264.7,174.9 273.7,177.2 283,185.9 283,202.9 276.7,208 269.7,214.6 
			272.4,225.7 272.4,233.2 264,238.9 255.4,238.9 249.7,232.2 251.7,216.6 248.4,205.2 241.2,198.1 235.4,187.5 		"/>
		<path id="XMLID_49_" class="st5" d="M115,179c0.5-0.1,1-0.1,1.5-0.1c0.5,0,1.1,0,1.7,0c3.3,0,6.4,0.6,9.2,1.7
			c2.8,1.1,5.2,2.7,7.1,4.7c2,2,3.5,4.4,4.6,7.3c1.1,2.8,1.7,5.9,1.7,9.2v16.8c0,2.5-0.5,4.8-1.4,6.8c-0.9,2.1-2.2,3.9-3.8,5.4
			c-1.6,1.5-3.5,2.7-5.6,3.6c-2.1,0.9-4.3,1.3-6.6,1.3c-2.4,0-4.7-0.5-6.8-1.4c-2.1-0.9-4-2.2-5.6-3.7c-1.6,1.6-3.5,2.8-5.6,3.7
			c-2.1,0.9-4.4,1.4-6.8,1.4c-2.3,0-4.5-0.4-6.6-1.3c-2.1-0.9-4-2.1-5.6-3.6c-1.6-1.5-2.9-3.3-3.9-5.4c-1-2.1-1.5-4.4-1.5-6.8v-34
			c0-2.5,0.5-4.8,1.4-6.8c0.9-2.1,2.2-3.9,3.8-5.4c1.6-1.5,3.5-2.7,5.6-3.6c2.1-0.9,4.3-1.3,6.6-1.3c1.9,0,3.7,0.3,5.4,0.9
			c1.7,0.6,3.3,1.4,4.8,2.4c1.5,1,2.7,2.3,3.8,3.7C113.6,175.7,114.4,177.3,115,179z M98.4,177.2c-1.1,0-2.1,0.2-3,0.6
			c-0.9,0.4-1.7,0.9-2.4,1.5c-0.7,0.6-1.2,1.4-1.6,2.3c-0.4,0.9-0.6,1.9-0.6,2.9v34c0,1,0.2,1.9,0.6,2.8c0.4,0.9,0.9,1.7,1.6,2.3
			c0.7,0.6,1.5,1.2,2.4,1.5c0.9,0.4,1.9,0.6,3,0.6c2.1,0,3.9-0.7,5.3-2.1c1.5-1.4,2.2-3.1,2.2-5.1v-11.8c0-1.7,0.5-3.1,1.5-4
			c1-0.9,2.2-1.4,3.6-1.4c1.4,0,2.6,0.5,3.5,1.4c0.9,0.9,1.3,2.3,1.3,4v11.8c0,1,0.2,1.9,0.6,2.8c0.4,0.9,0.9,1.7,1.6,2.3
			c0.7,0.6,1.5,1.2,2.4,1.5c0.9,0.4,1.9,0.6,3,0.6c1,0,2-0.2,2.9-0.6c0.9-0.4,1.7-0.9,2.4-1.5c0.7-0.6,1.2-1.4,1.6-2.3
			c0.4-0.9,0.6-1.8,0.6-2.8v-16.8c0-4-1.1-7.2-3.4-9.6c-2.3-2.3-5.4-3.5-9.3-3.5c-2.7,0-5.1,0.7-7.1,2.1c-2,1.4-3.7,2.9-5.1,4.7
			v-10.9c0-1-0.2-2-0.6-2.9c-0.4-0.9-0.9-1.7-1.6-2.3c-0.7-0.6-1.5-1.2-2.4-1.5C100.4,177.4,99.4,177.2,98.4,177.2z"/>
		<path id="XMLID_52_" class="st5" d="M130.9,207.8c0-4.2,0.8-8,2.5-11.5c1.6-3.5,3.9-6.6,6.7-9.2c2.8-2.6,6.1-4.6,9.9-6.1
			s7.8-2.2,12.1-2.2s8.3,0.7,12.1,2.1c3.8,1.4,7.1,3.4,9.9,6c2.8,2.6,5,5.6,6.6,9.1c1.6,3.5,2.4,7.3,2.4,11.4
			c0,4.2-0.8,8.1-2.5,11.6c-1.6,3.5-3.9,6.6-6.7,9.2c-2.8,2.6-6.1,4.6-9.9,6c-3.8,1.4-7.8,2.1-12.1,2.1c-4.2,0-8.2-0.7-12-2.1
			c-3.8-1.4-7.1-3.4-9.9-6c-2.8-2.5-5-5.5-6.7-9C131.7,215.8,130.9,212,130.9,207.8z M161.9,226.5c3.1,0,5.9-0.5,8.5-1.5
			c2.6-1,4.9-2.4,6.7-4.1c1.9-1.7,3.3-3.8,4.4-6.1c1.1-2.3,1.6-4.8,1.6-7.4c0-2.5-0.5-5-1.5-7.2c-1-2.3-2.5-4.3-4.3-6
			c-1.9-1.7-4.1-3-6.7-4c-2.6-1-5.4-1.5-8.5-1.5s-5.9,0.5-8.5,1.5c-2.6,1-4.9,2.4-6.8,4.1c-1.9,1.8-3.4,3.8-4.4,6.1
			c-1.1,2.3-1.6,4.8-1.6,7.4s0.5,5,1.6,7.3c1.1,2.3,2.5,4.3,4.4,6c1.9,1.7,4.1,3,6.7,4C156,226,158.8,226.5,161.9,226.5z
			 M162.1,214.6c-1.9,0-3.6-0.7-4.9-2c-1.3-1.3-1.9-3-1.9-5.1c0-1.9,0.6-3.5,1.9-4.8c1.3-1.3,2.8-2,4.7-2c1.9,0,3.5,0.7,4.8,2
			c1.3,1.4,2,3.1,2,5.1c0,1.9-0.6,3.5-1.9,4.8C165.5,214,163.9,214.6,162.1,214.6z"/>
		<path id="XMLID_56_" class="st5" d="M212.4,184.7c1.6-1.6,3.4-2.8,5.4-3.6c2-0.8,4.2-1.3,6.4-1.3c2.4,0,4.7,0.4,6.7,1.3
			c2.1,0.9,3.8,2.1,5.4,3.6c1.5,1.5,2.7,3.3,3.6,5.3c0.9,2,1.3,4.2,1.3,6.4c0,1.9-0.4,3.8-1.1,5.8l-9.6,24.7
			c-1.1,2.8-2.3,5.3-3.8,7.7c-1.5,2.4-3.2,4.4-5.2,6.2c-2,1.7-4.4,3.1-7,4.1c-2.6,1-5.7,1.5-9.2,1.6c-1.3,0-2.8-0.1-4.7-0.2
			c-1.8-0.2-3.7-0.6-5.6-1.3c-0.9-0.3-2-0.8-3.3-1.5c-1.4-0.7-2.7-1.7-3.9-2.9c-1.3-1.2-2.4-2.7-3.3-4.5c-0.9-1.8-1.4-3.9-1.4-6.3
			c0-1.3,0.2-2.6,0.6-4c0.4-1.4,0.9-2.7,1.7-3.9c0.8-1.2,1.7-2.4,2.9-3.4c1.2-1,2.6-1.8,4.1-2.4c-1.1-1.3-2.1-2.8-3-4.4
			c-0.9-1.6-1.7-3-2.4-4.4c-0.8-1.6-1.5-3.1-2.2-4.6c-0.4-1-0.7-2.1-0.9-3.1c-0.2-1-0.3-2-0.3-3c0-2.2,0.4-4.3,1.3-6.3
			c0.8-2,2-3.8,3.5-5.4c1.5-1.6,3.3-2.8,5.3-3.8c2.1-0.9,4.3-1.4,6.8-1.4c2.3,0,4.4,0.4,6.5,1.3C209,182,210.8,183.2,212.4,184.7z
			 M205.2,236.7c4.1-0.1,7.4-1.2,9.8-3.3c2.4-2.2,4.5-5.5,6.2-10l9.6-24.7c0.3-0.7,0.4-1.4,0.4-2.1c0-0.9-0.2-1.7-0.5-2.6
			c-0.4-0.8-0.8-1.6-1.5-2.2c-0.6-0.6-1.4-1.2-2.2-1.5c-0.9-0.4-1.8-0.6-2.8-0.6c-1.5,0-2.8,0.4-4.1,1.3c-1.3,0.9-2.1,2-2.6,3.4
			l-4.9,15.6l-5.4-15.8c-0.5-1.3-1.3-2.5-2.6-3.3c-1.2-0.9-2.6-1.3-4.2-1.3c-1,0-1.9,0.2-2.7,0.6c-0.8,0.4-1.6,0.9-2.2,1.6
			c-0.6,0.6-1.1,1.4-1.5,2.2c-0.4,0.8-0.5,1.7-0.5,2.6c0,0.7,0.2,1.5,0.5,2.3l11.7,28.4c-1.1,0-2-0.1-2.8-0.3
			c-0.8-0.2-1.6-0.5-2.3-0.9c-0.5-0.3-1-0.5-1.5-0.6s-1-0.2-1.6-0.2c-1.4,0-2.5,0.5-3.2,1.4c-0.8,0.9-1.1,2-1.1,3.2
			c0,0.8,0.2,1.4,0.5,2.1c0.3,0.6,0.8,1.2,1.3,1.7c0.5,0.5,1.1,0.9,1.7,1.3c0.6,0.4,1.2,0.6,1.8,0.9c1.2,0.4,2.4,0.7,3.6,0.8
			C203,236.7,204.1,236.7,205.2,236.7z"/>
		<path id="XMLID_59_" class="st5" d="M275.1,216.6c1.4,1.6,2.5,3.3,3.4,5.3c0.8,2,1.3,4.2,1.3,6.5c0,2.7-0.5,5.1-1.5,7.3
			c-1,2.2-2.3,4.1-4,5.6c-1.7,1.6-3.6,2.8-5.8,3.6c-2.2,0.9-4.5,1.3-6.8,1.3c-2.4,0-4.7-0.4-6.8-1.3c-2.2-0.8-4.1-2-5.8-3.6
			c-1.7-1.6-3.1-3.5-4.1-5.7c-1-2.2-1.5-4.7-1.5-7.4c0-2.4,0.4-4.7,1.3-6.7c0.9-2.1,2.1-3.9,3.6-5.4c-0.5-0.9-0.8-2.1-0.8-3.4
			c-0.1-0.6-0.2-1.3-0.4-2c-0.2-0.8-0.3-1.5-0.4-2.3l-0.2-1.1c-2.4-0.3-4.6-1-6.8-2.3c-2.1-1.2-3.9-2.8-5.4-4.7
			c-0.7-1.2-1.3-2.6-1.9-4.3c-0.6-1.6-0.9-3.3-0.9-4.8c0-2.9,0.7-5.4,2-7.6c1.3-2.2,2.9-4,4.8-5.5c2.6-1.6,5.3-3,8.1-4.3
			c2.4-1.1,5.1-2.1,8-3c2.9-0.9,5.8-1.4,8.7-1.4c3.3,0,6.6,0.5,9.9,1.5c3.3,1,6.3,2.5,8.9,4.5c2.6,2,4.7,4.5,6.4,7.5
			c1.6,3,2.4,6.5,2.4,10.4c0,3-0.4,5.6-1.2,7.9c-0.8,2.3-1.9,4.3-3.3,6.1c-1.4,1.8-2.9,3.2-4.7,4.5c-1.8,1.2-3.6,2.3-5.5,3.1
			L275.1,216.6z M258.6,199.9c-0.6,0.1-1.2,0.4-1.9,0.8c-0.7,0.4-1.1,1-1.1,1.9c0,0.5,0.1,1.2,0.2,2.1c0.1,0.9,0.2,1.9,0.4,2.9
			c0.2,1,0.3,1.9,0.5,2.8c0.2,0.9,0.3,1.5,0.4,1.8c0.4,1.2,0.9,2.3,1.6,3.2c0.7,0.9,1.7,1.3,3,1.3c1.2,0,2.1-0.4,2.9-1.2
			s1.2-1.8,1.5-3.1l0.9-4.9c2-0.5,3.8-1.1,5.5-1.9c1.7-0.8,3.1-1.7,4.3-2.8c1.2-1.1,2.1-2.5,2.8-4c0.6-1.5,1-3.3,1-5.3
			c0-2.1-0.4-4-1.3-5.7c-0.9-1.7-2.1-3.2-3.6-4.4c-1.6-1.2-3.4-2.2-5.6-2.8c-2.2-0.7-4.5-1-7.1-1c-2.1,0-4,0.2-5.8,0.6
			c-1.8,0.4-3.4,0.9-5,1.5c-1.5,0.6-3,1.4-4.3,2.2c-1.3,0.8-2.6,1.6-3.8,2.4c-1.9,1.4-2.8,3.1-2.8,5.1c0,1.2,0.3,2.3,1.1,3.5
			c1.3,1.8,3.1,2.7,5.3,2.7c1.5,0,2.6-0.3,3.5-1c1.8-1.3,3.6-2.4,5.4-3.2c1.8-0.8,3.5-1.2,4.9-1.2c1.5,0,2.6,0.3,3.4,0.9
			c0.8,0.6,1.1,1.4,1.1,2.3c0,1.1-0.5,2-1.5,2.7C263.3,198.7,261.4,199.3,258.6,199.9z M253,228.5c0,2.4,0.8,4.3,2.4,5.8
			c1.6,1.5,3.6,2.2,6,2.2c1.1,0,2.2-0.2,3.2-0.6c1-0.4,1.9-1,2.6-1.7c0.8-0.7,1.3-1.5,1.8-2.5c0.4-1,0.6-2.1,0.6-3.2
			c0-1.1-0.2-2.2-0.6-3.1c-0.4-0.9-1-1.8-1.8-2.5c-0.8-0.7-1.6-1.3-2.6-1.7c-1-0.4-2.1-0.6-3.2-0.6c-2.4,0-4.4,0.8-6,2.3
			C253.8,224.3,253,226.2,253,228.5z"/>
	</g>
</g>
</svg>
