<svg width="1920" height="1080" xmlns="http://www.w3.org/2000/svg" xmlns:xlink="http://www.w3.org/1999/xlink" version="1.1" style=""><rect id="backgroundrect" width="100%" height="100%" x="0" y="0" fill="none" stroke="none"/><g class="currentLayer" style=""><title>Layer 1</title><rect x="0" y="0" width="1920" height="1080" fill="#fff" id="svg_1" class=""/><path d="M -2.5641026496887207 704 C -2.461253825823467 239.02393160661063 -30.563533492883728 520.7829063812892 -30.460684669018477 759.8068379878998 C 22.93931533098153 777.9068379878997 210.7358973503106 824.5632483482361 317.4358973503106 809.8632483482361 C 424.1358973503106 795.163248348236 530.7358973503106 729.5632483482361 637.4358973503106 675.663248348236 C 744.1358973503106 621.8632483482361 850.7358973503106 579.8632483482361 957.4358973503106 568.163248348236 C 1064.1358973503106 556.563248348236 1176.71880339384 592.2572656154632 1283.41880339384 634.1572656154633 C 1390.1188033938402 675.9572656154633 1490.7358973503106 723.8632483482361 1597.4358973503106 673.0632483482361 C 1704.1358973503106 622.163248348236 1821.8470085740082 461.54615439176564 1875.2470085740083 378.1461543917656 L 1937.9487180709827 285.44444489479065 L 1941.3675215244293 -1.7094017267227173 L 1864.1358973503113 0 C 1810.7358973503112 0 1704.1358973503113 0 1597.4358973503113 0 C 1490.7358973503112 0 1384.1358973503113 0 1277.4358973503113 0 C 1170.7358973503112 0 1064.1358973503113 0 957.4358973503113 0 C 850.7358973503112 0 744.1358973503113 0 637.4358973503113 0 C 530.7358973503112 0 424.13589735031127 0 317.4358973503113 0 C 210.7358973503113 0 104.13589735031128 0 50.735897350311284 0 L -2.5641026496887207 0 z" fill="#67b0d8" stroke-linecap="round" stroke-linejoin="miter" id="svg_2" class="selected"/></g></svg>