<svg id="visual" viewBox="0 0 675 900" width="675" height="900" xmlns="http://www.w3.org/2000/svg" xmlns:xlink="http://www.w3.org/1999/xlink" version="1.1"><rect x="0" y="0" width="675" height="900" fill="#ffffff"></rect><path d="M0 555L18.8 552.2C37.7 549.3 75.3 543.7 112.8 525.2C150.3 506.7 187.7 475.3 225.2 483.8C262.7 492.3 300.3 540.7 337.8 571.2C375.3 601.7 412.7 614.3 450.2 583C487.7 551.7 525.3 476.3 562.8 460.8C600.3 445.3 637.7 489.7 656.3 511.8L675 534L675 0L656.3 0C637.7 0 600.3 0 562.8 0C525.3 0 487.7 0 450.2 0C412.7 0 375.3 0 337.8 0C300.3 0 262.7 0 225.2 0C187.7 0 150.3 0 112.8 0C75.3 0 37.7 0 18.8 0L0 0Z" fill="#67b0d8" stroke-linecap="round" stroke-linejoin="miter"></path></svg>